# xmcd
#
# Track frame offsets: 
#        150
#        14436
#        28485
#        42808
#        55973
#        70529
#        83277
#        94818
#        108707
#        119603
#        131899
#        144726
#        158655
#        169636
#        184805
#        198850
#        211303
#        226338
#
# Disc length: 3190 seconds
#
# Revision: 1
# Processed by: cddbd v1.5.2PL0 Copyright (c) Steve Scherf et al.
# Submitted via: ExactAudioCopy v0.95b2
#
DISCID=f90c7412
DTITLE=Memphis Jug Band - The Essential Memphis Jug Band Disc 1
DYEAR=1900
DGENRE=
TTITLE0=Son Brimmers Blues
TTITLE1=Newport News Blues
TTITLE2=Stealin' Stealin'
TTITLE3=Memphis Minnie - Bumble Bee Blues
TTITLE4=Peaches In The Springtime
TTITLE5=On The Road Again
TTITLE6=K.C. Moan
TTITLE7=I'll See You In The Spring, When The Birds Begin To Sing
TTITLE8=You Got Me Rollin'
TTITLE9=Minnie Wallace - The Old Folks Started It 
TTITLE10=Hattie Hart - Cocaine Habit Blues
TTITLE11=You May Leave But This Will Bring You Back
TTITLE12=Going Back To Memphis
TTITLE13=My Buisness Ain't Right
TTITLE14=Sometimes I Think I Love You
TTITLE15=Whitewash Station Blues
TTITLE16=State Of Tennessee Blues
TTITLE17=Kansas City Blues
EXTD=
EXTT0=
EXTT1=
EXTT2=
EXTT3=
EXTT4=
EXTT5=
EXTT6=
EXTT7=
EXTT8=
EXTT9=
EXTT10=
EXTT11=
EXTT12=
EXTT13=
EXTT14=
EXTT15=
EXTT16=
EXTT17=
PLAYORDER=
